<?xml version="1.0" encoding="UTF-8"?>
<svg width="168.89" height="168.89" version="1.1" viewBox="0 0 114.3 114.3" xmlns="http://www.w3.org/2000/svg">
 <g transform="matrix(.9 0 0 .9 3.15 2.4499e-7)" fill="#a0e4b0">
  <rect width="120" height="127" rx="10" ry="10"/>
 </g>
 <g transform="matrix(2.114 0 0 2.114 10.807 -25.608)" fill="#fff">
  <path d="m34.116 19.739 6.7218 38.389c0.34576 1.0366-17.118 1.5623-16.835 0.5066l1.5502-13.634-11.238-2.9459c-1.057 5.4202-1.934 10.903-2.5772 16.433-0.1926 1.4542-5.3038 1.6411-5.7106 0.12709-1.0252-6.531-1.7491-13.131-2.2003-19.789-0.3699-5.5301-0.55166-11.099-0.48305-16.735-0.24598-0.08771-0.36926-0.1824-0.33873-0.28412l0.3051-2.0002 0.07629 7e-3c0.00955-0.39533 0.016523-0.79002 0.028594-1.1866l16.189 1.4339 0.24281 2.0084c0.03814 0.14303-0.22371 0.26314-0.70104 0.36164-1.0417 3.4213-1.9804 6.9084-2.8308 10.441l10.761-1.2508 1.3315-11.71c0.18176-1.4046 5.2937-1.5743 5.7093-0.17156z"/>
 </g>
</svg>
