<svg width="395.99999999999994" height="168.89104477611937" viewBox="0 0 268 114.3"     xmlns="http://www.w3.org/2000/svg"
><g   transform="matrix(0.9,0,0,0.9,0,0)" fill="#a0e4b0"><rect width="120" height="127" rx="10" ry="10"></rect></g><g  transform="matrix(2.114035107172904,0,0,2.114035107172904,7.656745500919443,-25.3777989781997)" fill="#ffffff"><path d="M34.116 19.738999999999997 l6.7218 38.389 c0.34576 1.0366 -17.118 1.5623 -16.835 0.5066 l1.5502 -13.634 l-11.238 -2.9459 c-1.057 5.4202 -1.934 10.903 -2.5772 16.433 c-0.1926 1.4542 -5.3038 1.6411 -5.7106 0.12709 c-1.0252 -6.531 -1.7491 -13.131 -2.2003 -19.789 c-0.3699 -5.5301 -0.55166 -11.099 -0.48305 -16.735 c-0.24598 -0.087714 -0.36926 -0.1824 -0.33873 -0.28412 l0.3051 -2.0002 l0.07629 0.0069726 c0.0095508 -0.39533 0.016523 -0.79002 0.028594 -1.1866 l16.189 1.4339 l0.24281 2.0084 c0.038144 0.14303 -0.22371 0.26314 -0.70104 0.36164 c-1.0417 3.4213 -1.9804 6.9084 -2.8308 10.441 l10.761 -1.2508 l1.3315 -11.71 c0.18176 -1.4046 5.2937 -1.5743 5.7093 -0.17156 z"></path></g><g  transform="matrix(1.9045092562897827,0,0,1.9045092562897827,124.19007970362436,8.054322905801413)" fill="#ffffffd9"><path d="M23.556 25.268 c0.15719 0.872 0.20988 1.7446 0.17852 2.6026 c-0.02668 0.858 -0.1343 1.7038 -0.3275 2.5249 c-0.37371 1.647 -1.0512 3.1978 -2.0228 4.6036 c-0.9864 1.3894 -2.2092 2.5745 -3.6923 3.4596 c-1.4728 0.87668 -3.2304 1.483 -5.1024 1.4699 c-0.92964 -0.0063672 -1.8563 -0.1568 -2.7262 -0.44028 c-0.86056 -0.29828 -1.6715 -0.69784 -2.3758 -1.1978 c-1.4126 -0.99784 -2.4762 -2.2677 -3.2486 -3.6291 c-0.78428 -1.3589 -1.2843 -2.8372 -1.5326 -4.3616 c-0.23644 -1.4978 -0.21484 -3.0262 0.079648 -4.532 c0.044064 -0.22668 0.09828 -0.45292 0.15719 -0.6788 c-0.3 -0.16016 -0.5432 -0.36184 -0.70336 -0.60208 c-0.21609 -0.31226 -0.29871 -0.6864 -0.19449 -1.0699 c0.2716 -1.1898 0.76268 -2.261 1.3754 -3.1847 c0.6148 -0.9258 1.3516 -1.7135 2.1749 -2.3758 c0.82452 -0.661 1.7389 -1.1987 2.7372 -1.5932 c0.4932 -0.1966 1.0309 -0.36016 1.5461 -0.47032 c0.25676 -0.051252 0.51396 -0.098712 0.77072 -0.14234 c0.25676 -0.030938 0.51396 -0.053828 0.77072 -0.075428 c1.0237 -0.062304 2.0339 0.0088672 2.9889 0.21226 c0.9538 0.20637 1.8592 0.52372 2.7088 0.92964 c1.6856 0.83344 3.1537 2.0207 4.2904 3.527 c1.1546 1.5372 1.8491 3.2808 2.1474 5.024 z M16.769 29.133 c0.053828 -0.41776 0.057188 -0.837 0.023281 -1.2404 c-0.029648 -0.40508 -0.098712 -0.79704 -0.21226 -1.1589 c-0.2093 -0.7288 -0.583 -1.3516 -1.011 -1.7851 c-0.23051 -0.22625 -0.48392 -0.44148 -0.76864 -0.61944 c-0.28726 -0.17371 -0.58936 -0.3182 -0.89488 -0.42792 c-0.3093 -0.097032 -0.61524 -0.15719 -0.90336 -0.18262 c-0.28898 -0.022031 -0.55168 0.011445 -0.78428 0.058476 c-0.056756 0.017812 -0.11356 0.029258 -0.16949 0.041564 c-0.05168 0.023711 -0.10293 0.044064 -0.15461 0.060156 c-0.09746 0.039414 -0.16058 0.077108 -0.24703 0.13133 c-0.1627 0.10297 -0.32965 0.2432 -0.46608 0.40084 c-0.28473 0.31398 -0.3877 0.69152 -0.33051 0.7826 c0.012305 0.018203 -0.11184 0.0016797 -0.34742 -0.0025391 c-0.24449 -0.0038281 -0.59576 0.005078 -1.0135 0.036445 c-0.67372 0.046172 -1.5372 0.16102 -2.4364 0.24617 c-0.28856 1.2555 -0.24238 2.6533 0.097852 3.9478 c0.49152 1.891 1.7682 3.677 3.1969 4.4392 c0.35125 0.19746 0.70844 0.3068 1.05 0.38898 c0.34492 0.064412 0.68392 0.073752 1.0161 0.037734 c0.6648 -0.0716 1.361 -0.39024 2.0038 -0.87408 c0.64488 -0.4822 1.2055 -1.164 1.6042 -1.8817 c0.38684 -0.72284 0.658 -1.5635 0.74744 -2.3987 z M50.104 28.771 c0.59784 1.0949 1.077 2.5357 0.9728 4.1092 c-0.070352 1.5626 -0.77756 3.0181 -1.6572 4.0296 c-0.88768 0.99656 -1.8652 1.5982 -2.7834 2.0258 c-0.92328 0.41568 -1.8182 0.66568 -2.7004 0.83052 c-0.439 0.08176 -0.88472 0.13812 -1.3148 0.175 c-0.40676 0.027109 -0.8114 0.050428 -1.2156 0.053828 c-3.2304 0.047892 -6.3656 -0.68896 -9.1256 -2.083 c-0.1216 -0.066092 -0.20848 -0.16058 -0.27883 -0.26777 c-0.45212 -0.11059 -0.79364 -0.26777 -0.85464 -0.46228 c-0.83728 -5.8988 -2.1728 -11.626 -3.9545 -17.104 c-0.0084764 -0.005078 -0.017812 -0.010156 -0.026289 -0.015664 c-0.9114 -0.5724 -1.397 -1.2101 -1.139 -1.583 c0.63896 -1.0805 1.3664 -1.9164 2.1211 -2.6304 c0.7576 -0.71096 1.55 -1.2966 2.383 -1.7999 c0.83388 -0.50168 1.708 -0.92032 2.6516 -1.2534 l0.72284 -0.23137 l0.75548 -0.1932 c0.26226 -0.055076 0.5288 -0.10379 0.79236 -0.14996 l0.6182 -0.072032 c0.81988 -0.082188 1.6512 -0.11734 2.5041 -0.093632 c0.2148 0.0089064 0.42372 0.010586 0.64364 0.029648 l0.68812 0.056368 c0.561 0.05168 1.1136 0.13559 1.6551 0.24828 c2.1682 0.44916 4.108 1.4754 5.4976 2.9669 l0.29871 0.35043 l0.275 0.3682 c0.18176 0.24574 0.36566 0.48768 0.50804 0.75844 c0.15125 0.26442 0.30211 0.52628 0.41436 0.80892 c0.12246 0.27668 0.23984 0.5538 0.31824 0.84616 c0.35633 1.1504 0.4542 2.3639 0.31695 3.5406 c-0.16102 1.3944 -0.65592 2.7313 -1.3948 3.8991 c0.052968 0.04746 0.10934 0.090272 0.16102 0.13898 c0.79576 0.7322 1.5364 1.594 2.1466 2.7038 z M39.06400000000001 21.174 c-0.33856 0.0784 -0.68932 0.18176 -1.0393 0.30082 c-0.019922 0.16949 -0.042812 0.3377 -0.063556 0.5072 c1.4008 0.15043 2.7448 0.44448 4.07 0.85972 c0.018203 -0.23473 0.0021094 -0.46396 -0.04832 -0.6758 c-0.13219 -0.58812 -0.55168 -1.0466 -1.0436 -1.2051 c-0.4042 -0.13726 -0.81016 -0.097852 -1.1144 0.0063672 c-0.077108 0.026289 -0.14828 0.056796 -0.21394 0.089844 c-0.033476 0.016953 -0.16484 0.037305 -0.25129 0.053828 c-0.093632 0.013555 -0.19746 0.042772 -0.29535 0.063124 z M43.45 33.168 c0.092384 -0.079648 0.16363 -0.1575 0.22422 -0.23207 c-0.055508 0.019922 -0.10719 0.041092 -0.175 0.066524 l-0.059336 0.022031 l-0.0080468 0.0016797 l-0.012695 0.0033984 c-0.023711 0 -0.046172 -0.0067968 -0.07922 -0.021211 c-0.12543 -0.058908 -0.35129 -0.2068 -0.63644 -0.32883 c-0.28262 -0.13516 -0.57668 -0.20254 -0.97496 -0.30762 c-0.39785 -0.09574 -0.85928 -0.16609 -1.3266 -0.22031 c-0.95504 -0.083048 -1.9796 -0.0784 -2.9037 0.082188 c-0.46776 0.063984 -0.89104 0.18942 -1.2741 0.30976 c-0.027969 0.0097264 -0.052108 0.020742 -0.078788 0.030898 c-0.15934 0.71436 -0.32672 1.425 -0.4996 2.1334 c1.7504 0.18726 3.5058 0.069452 5.1344 -0.33984 c0.28176 -0.067384 0.558 -0.15086 0.83172 -0.23348 c0.24828 -0.083908 0.47752 -0.17246 0.70252 -0.27543 c0.44616 -0.20254 0.84784 -0.4466 1.1356 -0.69108 z M66.549 16.346 c-0.20719 -0.56988 9.0836 -1.2813 8.96 -0.63596 c-0.43936 7.77 -1.4906 15.428 -3.113 22.884 c-0.1877 0.81268 -2.9046 0.57032 -3.0355 -0.25637 c-0.05 -1.0241 -0.11312 -2.0461 -0.18473 -3.0664 c-0.33473 0.49068 -0.68684 0.972 -1.0758 1.4317 l-0.4042 0.4606 c-0.125 0.13941 -0.3398 0.35422 -0.5254 0.5288 c-0.38602 0.36356 -0.80168 0.70212 -1.2462 0.99784 c-0.88596 0.59192 -1.9004 1.011 -2.9681 1.1025 c-1.0678 0.10383 -2.1597 -0.13559 -3.1287 -0.6356 c-0.972 -0.5 -1.8364 -1.2483 -2.5376 -2.158 c-0.35043 -0.45508 -0.6572 -0.95256 -0.92624 -1.475 c-0.14195 -0.27922 -0.23348 -0.4716 -0.33137 -0.68856 c-0.09574 -0.21312 -0.18473 -0.42584 -0.26648 -0.63596 c-0.32879 -0.84276 -0.56268 -1.655 -0.76268 -2.4198 c-0.19574 -0.75972 -0.36692 -1.4856 -0.5288 -2.2368 c-0.32203 -1.4927 -0.5788 -3.0037 -0.76988 -4.5276 c-0.38262 -3.0474 -0.52032 -6.1476 -0.37668 -9.262 c-0.032188 -1.0576 9.184 0.32797 8.9136 1.1123 c-0.57116 2.5431 -0.91524 5.162 -1.0462 7.8104 c-0.065236 1.3245 -0.07328 2.6562 -0.021602 3.9901 c0.025 0.66184 0.065236 1.3461 0.11566 1.9906 c0.05086 0.63812 0.11695 1.2228 0.21484 1.7406 c0.024141 0.13008 0.05082 0.25465 0.07922 0.37539 c0.026289 0.11695 0.066524 0.25594 0.0716 0.30129 c0.021172 0.1284 0.055076 0.25934 0.10125 0.3907 c0.093632 0.26188 0.24277 0.52712 0.46016 0.75 c0.2148 0.22371 0.5076 0.3932 0.83128 0.43812 c0.32328 0.046172 0.65928 -0.02375 0.98132 -0.15723 c0.49616 -0.13391 1.6521 -1.1059 2.4626 -2.0063 c0.83176 -0.91524 1.5589 -1.9592 2.1461 -3.0927 c-0.49488 -4.4068 -1.1902 -8.7636 -2.0885 -13.05 z"></path></g></svg>
